{
	"asset":{
		"generator":"Khronos glTF Blender I/O v4.4.56",
		"version":"2.0"
	},
	"extensionsUsed":[
		"KHR_materials_specular"
	],
	"scene":0,
	"scenes":[
		{
			"name":"Scene",
			"nodes":[
				0,
				1,
				2,
				3,
				4,
				5,
				6,
				7,
				8,
				9,
				10,
				11,
				12,
				13,
				14,
				15,
				16,
				17,
				18,
				19,
				20
			]
		}
	],
	"nodes":[
		{
			"mesh":0,
			"name":"Basalt",
			"rotation":[
				0.70710688829422,
				0,
				0,
				0.7071066498756409
			]
		},
		{
			"mesh":1,
			"name":"Chest",
			"rotation":[
				0.70710688829422,
				0,
				0,
				0.7071066498756409
			]
		},
		{
			"mesh":2,
			"name":"Clay",
			"rotation":[
				0.70710688829422,
				0,
				0,
				0.7071066498756409
			]
		},
		{
			"mesh":3,
			"name":"Coal_Ore",
			"rotation":[
				0.70710688829422,
				0,
				0,
				0.7071066498756409
			]
		},
		{
			"mesh":4,
			"name":"Cobblestone",
			"rotation":[
				0.70710688829422,
				0,
				0,
				0.7071066498756409
			]
		},
		{
			"mesh":5,
			"name":"Copper_Ore",
			"rotation":[
				0.70710688829422,
				0,
				0,
				0.7071066498756409
			]
		},
		{
			"mesh":6,
			"name":"Dandelion",
			"rotation":[
				0.70710688829422,
				0,
				0,
				0.7071066498756409
			]
		},
		{
			"mesh":7,
			"name":"Dirt",
			"rotation":[
				0.70710688829422,
				0,
				0,
				0.7071066498756409
			]
		},
		{
			"mesh":8,
			"name":"Emerald_Ore",
			"rotation":[
				0.70710688829422,
				0,
				0,
				0.7071066498756409
			]
		},
		{
			"mesh":9,
			"name":"Grass_Block",
			"rotation":[
				0.70710688829422,
				0,
				0,
				0.7071066498756409
			]
		},
		{
			"mesh":10,
			"name":"Gravel",
			"rotation":[
				0.70710688829422,
				0,
				0,
				0.7071066498756409
			]
		},
		{
			"mesh":11,
			"name":"Iron_Ore",
			"rotation":[
				0.70710688829422,
				0,
				0,
				0.7071066498756409
			]
		},
		{
			"mesh":12,
			"name":"Kelp",
			"rotation":[
				0.70710688829422,
				0,
				0,
				0.7071066498756409
			]
		},
		{
			"mesh":13,
			"name":"Magma_Block",
			"rotation":[
				0.70710688829422,
				0,
				0,
				0.7071066498756409
			]
		},
		{
			"mesh":14,
			"name":"Netherrack",
			"rotation":[
				0.70710688829422,
				0,
				0,
				0.7071066498756409
			]
		},
		{
			"mesh":15,
			"name":"Obsidian",
			"rotation":[
				0.70710688829422,
				0,
				0,
				0.7071066498756409
			]
		},
		{
			"mesh":16,
			"name":"Poppy",
			"rotation":[
				0.70710688829422,
				0,
				0,
				0.7071066498756409
			]
		},
		{
			"mesh":17,
			"name":"Sand",
			"rotation":[
				0.70710688829422,
				0,
				0,
				0.7071066498756409
			]
		},
		{
			"mesh":18,
			"name":"Short_Grass",
			"rotation":[
				0.70710688829422,
				0,
				0,
				0.7071066498756409
			]
		},
		{
			"mesh":19,
			"name":"Stone",
			"rotation":[
				0.70710688829422,
				0,
				0,
				0.7071066498756409
			]
		},
		{
			"mesh":20,
			"name":"Sunflower",
			"rotation":[
				0.70710688829422,
				0,
				0,
				0.7071066498756409
			]
		}
	],
	"materials":[
		{
			"doubleSided":true,
			"extensions":{
				"KHR_materials_specular":{
					"specularFactor":0
				}
			},
			"name":"basalt_top.005",
			"pbrMetallicRoughness":{
				"baseColorTexture":{
					"index":0
				},
				"metallicFactor":0
			}
		},
		{
			"doubleSided":true,
			"extensions":{
				"KHR_materials_specular":{
					"specularFactor":0
				}
			},
			"name":"basalt_side.005",
			"pbrMetallicRoughness":{
				"baseColorTexture":{
					"index":1
				},
				"metallicFactor":0
			}
		},
		{
			"doubleSided":true,
			"extensions":{
				"KHR_materials_specular":{
					"specularFactor":0
				}
			},
			"name":"deepslate_top.005",
			"pbrMetallicRoughness":{
				"baseColorTexture":{
					"index":2
				},
				"metallicFactor":0
			}
		},
		{
			"doubleSided":true,
			"extensions":{
				"KHR_materials_specular":{
					"specularFactor":0
				}
			},
			"name":"deepslate.005",
			"pbrMetallicRoughness":{
				"baseColorTexture":{
					"index":3
				},
				"metallicFactor":0
			}
		},
		{
			"doubleSided":true,
			"extensions":{
				"KHR_materials_specular":{
					"specularFactor":0
				}
			},
			"name":"MWO_chest_top.005",
			"pbrMetallicRoughness":{
				"baseColorTexture":{
					"index":4
				},
				"metallicFactor":0
			}
		},
		{
			"doubleSided":true,
			"extensions":{
				"KHR_materials_specular":{
					"specularFactor":0
				}
			},
			"name":"MWO_chest_side.005",
			"pbrMetallicRoughness":{
				"baseColorTexture":{
					"index":5
				},
				"metallicFactor":0
			}
		},
		{
			"doubleSided":true,
			"extensions":{
				"KHR_materials_specular":{
					"specularFactor":0
				}
			},
			"name":"MWO_chest_front.005",
			"pbrMetallicRoughness":{
				"baseColorTexture":{
					"index":6
				},
				"metallicFactor":0
			}
		},
		{
			"doubleSided":true,
			"extensions":{
				"KHR_materials_specular":{
					"specularFactor":0
				}
			},
			"name":"MWO_chest_latch.005",
			"pbrMetallicRoughness":{
				"baseColorTexture":{
					"index":7
				},
				"metallicFactor":0
			}
		},
		{
			"doubleSided":true,
			"extensions":{
				"KHR_materials_specular":{
					"specularFactor":0.33000001311302185
				}
			},
			"name":"clay.006",
			"pbrMetallicRoughness":{
				"baseColorTexture":{
					"index":8
				},
				"metallicFactor":0,
				"roughnessFactor":0.6255003213882446
			}
		},
		{
			"doubleSided":true,
			"extensions":{
				"KHR_materials_specular":{
					"specularFactor":0
				}
			},
			"name":"coal_ore.006",
			"pbrMetallicRoughness":{
				"baseColorTexture":{
					"index":9
				},
				"metallicFactor":0
			}
		},
		{
			"doubleSided":true,
			"extensions":{
				"KHR_materials_specular":{
					"specularFactor":0
				}
			},
			"name":"cobblestone.005",
			"pbrMetallicRoughness":{
				"baseColorTexture":{
					"index":10
				},
				"metallicFactor":0
			}
		},
		{
			"doubleSided":true,
			"extensions":{
				"KHR_materials_specular":{
					"specularFactor":0
				}
			},
			"name":"copper_ore.006",
			"pbrMetallicRoughness":{
				"baseColorTexture":{
					"index":11
				},
				"metallicFactor":0
			}
		},
		{
			"alphaMode":"BLEND",
			"doubleSided":true,
			"extensions":{
				"KHR_materials_specular":{
					"specularFactor":0
				}
			},
			"name":"dandelion.006",
			"pbrMetallicRoughness":{
				"baseColorTexture":{
					"index":12
				},
				"metallicFactor":0
			}
		},
		{
			"doubleSided":true,
			"extensions":{
				"KHR_materials_specular":{
					"specularFactor":0
				}
			},
			"name":"dirt.006",
			"pbrMetallicRoughness":{
				"baseColorTexture":{
					"index":13
				},
				"metallicFactor":0
			}
		},
		{
			"doubleSided":true,
			"extensions":{
				"KHR_materials_specular":{
					"specularFactor":0
				}
			},
			"name":"emerald_ore.006",
			"pbrMetallicRoughness":{
				"baseColorTexture":{
					"index":14
				},
				"metallicFactor":0
			}
		},
		{
			"doubleSided":true,
			"extensions":{
				"KHR_materials_specular":{
					"specularFactor":0
				}
			},
			"name":"grass_block_top.006",
			"pbrMetallicRoughness":{
				"baseColorTexture":{
					"index":15
				},
				"metallicFactor":0
			}
		},
		{
			"doubleSided":true,
			"extensions":{
				"KHR_materials_specular":{
					"specularFactor":0
				}
			},
			"name":"grass_block_side.006",
			"pbrMetallicRoughness":{
				"baseColorTexture":{
					"index":16
				},
				"metallicFactor":0
			}
		},
		{
			"doubleSided":true,
			"extensions":{
				"KHR_materials_specular":{
					"specularFactor":0
				}
			},
			"name":"gravel.006",
			"pbrMetallicRoughness":{
				"baseColorTexture":{
					"index":17
				},
				"metallicFactor":0
			}
		},
		{
			"doubleSided":true,
			"extensions":{
				"KHR_materials_specular":{
					"specularFactor":0
				}
			},
			"name":"iron_ore.006",
			"pbrMetallicRoughness":{
				"baseColorTexture":{
					"index":18
				},
				"metallicFactor":0
			}
		},
		{
			"alphaMode":"BLEND",
			"doubleSided":true,
			"extensions":{
				"KHR_materials_specular":{
					"specularFactor":0
				}
			},
			"name":"kelp.005",
			"pbrMetallicRoughness":{
				"baseColorTexture":{
					"index":19
				},
				"metallicFactor":0
			}
		},
		{
			"alphaMode":"BLEND",
			"doubleSided":true,
			"extensions":{
				"KHR_materials_specular":{
					"specularFactor":0
				}
			},
			"name":"kelp_plant.005",
			"pbrMetallicRoughness":{
				"baseColorTexture":{
					"index":20
				},
				"metallicFactor":0
			}
		},
		{
			"doubleSided":true,
			"emissiveFactor":[
				1,
				1,
				1
			],
			"emissiveTexture":{
				"index":21
			},
			"extensions":{
				"KHR_materials_specular":{
					"specularFactor":0
				}
			},
			"name":"magma.005",
			"pbrMetallicRoughness":{
				"baseColorTexture":{
					"index":22
				},
				"metallicFactor":0
			}
		},
		{
			"doubleSided":true,
			"extensions":{
				"KHR_materials_specular":{
					"specularFactor":0
				}
			},
			"name":"netherrack.005",
			"pbrMetallicRoughness":{
				"baseColorTexture":{
					"index":23
				},
				"metallicFactor":0
			}
		},
		{
			"doubleSided":true,
			"extensions":{
				"KHR_materials_specular":{
					"specularFactor":0.47999998927116394
				}
			},
			"name":"obsidian.005",
			"pbrMetallicRoughness":{
				"baseColorTexture":{
					"index":24
				},
				"metallicFactor":0,
				"roughnessFactor":0.548336386680603
			}
		},
		{
			"alphaMode":"BLEND",
			"doubleSided":true,
			"extensions":{
				"KHR_materials_specular":{
					"specularFactor":0
				}
			},
			"name":"poppy.006",
			"pbrMetallicRoughness":{
				"baseColorTexture":{
					"index":25
				},
				"metallicFactor":0
			}
		},
		{
			"alphaMode":"BLEND",
			"doubleSided":true,
			"extensions":{
				"KHR_materials_specular":{
					"specularFactor":0
				}
			},
			"name":"blue_orchid.005",
			"pbrMetallicRoughness":{
				"baseColorTexture":{
					"index":26
				},
				"metallicFactor":0
			}
		},
		{
			"alphaMode":"BLEND",
			"doubleSided":true,
			"extensions":{
				"KHR_materials_specular":{
					"specularFactor":0
				}
			},
			"name":"allium.005",
			"pbrMetallicRoughness":{
				"baseColorTexture":{
					"index":27
				},
				"metallicFactor":0
			}
		},
		{
			"alphaMode":"BLEND",
			"doubleSided":true,
			"extensions":{
				"KHR_materials_specular":{
					"specularFactor":0
				}
			},
			"name":"azure_bluet.006",
			"pbrMetallicRoughness":{
				"baseColorTexture":{
					"index":28
				},
				"metallicFactor":0
			}
		},
		{
			"alphaMode":"BLEND",
			"doubleSided":true,
			"extensions":{
				"KHR_materials_specular":{
					"specularFactor":0
				}
			},
			"name":"red_tulip.006",
			"pbrMetallicRoughness":{
				"baseColorTexture":{
					"index":29
				},
				"metallicFactor":0
			}
		},
		{
			"alphaMode":"BLEND",
			"doubleSided":true,
			"extensions":{
				"KHR_materials_specular":{
					"specularFactor":0
				}
			},
			"name":"orange_tulip.006",
			"pbrMetallicRoughness":{
				"baseColorTexture":{
					"index":30
				},
				"metallicFactor":0
			}
		},
		{
			"alphaMode":"BLEND",
			"doubleSided":true,
			"extensions":{
				"KHR_materials_specular":{
					"specularFactor":0
				}
			},
			"name":"white_tulip.006",
			"pbrMetallicRoughness":{
				"baseColorTexture":{
					"index":31
				},
				"metallicFactor":0
			}
		},
		{
			"alphaMode":"BLEND",
			"doubleSided":true,
			"extensions":{
				"KHR_materials_specular":{
					"specularFactor":0
				}
			},
			"name":"pink_tulip.005",
			"pbrMetallicRoughness":{
				"baseColorTexture":{
					"index":32
				},
				"metallicFactor":0
			}
		},
		{
			"alphaMode":"BLEND",
			"doubleSided":true,
			"extensions":{
				"KHR_materials_specular":{
					"specularFactor":0
				}
			},
			"name":"oxeye_daisy.006",
			"pbrMetallicRoughness":{
				"baseColorTexture":{
					"index":33
				},
				"metallicFactor":0
			}
		},
		{
			"doubleSided":true,
			"extensions":{
				"KHR_materials_specular":{
					"specularFactor":0
				}
			},
			"name":"sand.006",
			"pbrMetallicRoughness":{
				"baseColorTexture":{
					"index":34
				},
				"metallicFactor":0
			}
		},
		{
			"alphaMode":"BLEND",
			"doubleSided":true,
			"extensions":{
				"KHR_materials_specular":{
					"specularFactor":0
				}
			},
			"name":"short_grass.006",
			"pbrMetallicRoughness":{
				"baseColorTexture":{
					"index":35
				},
				"metallicFactor":0
			}
		},
		{
			"alphaMode":"BLEND",
			"doubleSided":true,
			"extensions":{
				"KHR_materials_specular":{
					"specularFactor":0
				}
			},
			"name":"fern.006",
			"pbrMetallicRoughness":{
				"baseColorTexture":{
					"index":36
				},
				"metallicFactor":0
			}
		},
		{
			"doubleSided":true,
			"extensions":{
				"KHR_materials_specular":{
					"specularFactor":0
				}
			},
			"name":"stone.006",
			"pbrMetallicRoughness":{
				"baseColorTexture":{
					"index":37
				},
				"metallicFactor":0
			}
		},
		{
			"doubleSided":true,
			"extensions":{
				"KHR_materials_specular":{
					"specularFactor":0
				}
			},
			"name":"granite.006",
			"pbrMetallicRoughness":{
				"baseColorTexture":{
					"index":38
				},
				"metallicFactor":0
			}
		},
		{
			"doubleSided":true,
			"extensions":{
				"KHR_materials_specular":{
					"specularFactor":0
				}
			},
			"name":"diorite.006",
			"pbrMetallicRoughness":{
				"baseColorTexture":{
					"index":39
				},
				"metallicFactor":0
			}
		},
		{
			"doubleSided":true,
			"extensions":{
				"KHR_materials_specular":{
					"specularFactor":0
				}
			},
			"name":"andesite.006",
			"pbrMetallicRoughness":{
				"baseColorTexture":{
					"index":40
				},
				"metallicFactor":0
			}
		},
		{
			"doubleSided":true,
			"extensions":{
				"KHR_materials_specular":{
					"specularFactor":0
				}
			},
			"name":"blackstone_top.005",
			"pbrMetallicRoughness":{
				"baseColorTexture":{
					"index":41
				},
				"metallicFactor":0
			}
		},
		{
			"doubleSided":true,
			"extensions":{
				"KHR_materials_specular":{
					"specularFactor":0
				}
			},
			"name":"blackstone.005",
			"pbrMetallicRoughness":{
				"baseColorTexture":{
					"index":42
				},
				"metallicFactor":0
			}
		},
		{
			"alphaMode":"BLEND",
			"doubleSided":true,
			"extensions":{
				"KHR_materials_specular":{
					"specularFactor":0
				}
			},
			"name":"sunflower_back.006",
			"pbrMetallicRoughness":{
				"baseColorTexture":{
					"index":43
				},
				"metallicFactor":0
			}
		},
		{
			"alphaMode":"BLEND",
			"doubleSided":true,
			"extensions":{
				"KHR_materials_specular":{
					"specularFactor":0
				}
			},
			"name":"sunflower_front.006",
			"pbrMetallicRoughness":{
				"baseColorTexture":{
					"index":44
				},
				"metallicFactor":0
			}
		},
		{
			"alphaMode":"BLEND",
			"doubleSided":true,
			"extensions":{
				"KHR_materials_specular":{
					"specularFactor":0
				}
			},
			"name":"sunflower_bottom.006",
			"pbrMetallicRoughness":{
				"baseColorTexture":{
					"index":45
				},
				"metallicFactor":0
			}
		},
		{
			"alphaMode":"BLEND",
			"doubleSided":true,
			"extensions":{
				"KHR_materials_specular":{
					"specularFactor":0
				}
			},
			"name":"sunflower_top.006",
			"pbrMetallicRoughness":{
				"baseColorTexture":{
					"index":46
				},
				"metallicFactor":0
			}
		},
		{
			"alphaMode":"BLEND",
			"doubleSided":true,
			"extensions":{
				"KHR_materials_specular":{
					"specularFactor":0
				}
			},
			"name":"lilac_bottom.005",
			"pbrMetallicRoughness":{
				"baseColorTexture":{
					"index":47
				},
				"metallicFactor":0
			}
		},
		{
			"alphaMode":"BLEND",
			"doubleSided":true,
			"extensions":{
				"KHR_materials_specular":{
					"specularFactor":0
				}
			},
			"name":"lilac_top.005",
			"pbrMetallicRoughness":{
				"baseColorTexture":{
					"index":48
				},
				"metallicFactor":0
			}
		},
		{
			"alphaMode":"BLEND",
			"doubleSided":true,
			"extensions":{
				"KHR_materials_specular":{
					"specularFactor":0
				}
			},
			"name":"tall_grass_bottom.006",
			"pbrMetallicRoughness":{
				"baseColorTexture":{
					"index":49
				},
				"metallicFactor":0
			}
		},
		{
			"alphaMode":"BLEND",
			"doubleSided":true,
			"extensions":{
				"KHR_materials_specular":{
					"specularFactor":0
				}
			},
			"name":"tall_grass_top.006",
			"pbrMetallicRoughness":{
				"baseColorTexture":{
					"index":50
				},
				"metallicFactor":0
			}
		},
		{
			"alphaMode":"BLEND",
			"doubleSided":true,
			"extensions":{
				"KHR_materials_specular":{
					"specularFactor":0
				}
			},
			"name":"large_fern_bottom.006",
			"pbrMetallicRoughness":{
				"baseColorTexture":{
					"index":51
				},
				"metallicFactor":0
			}
		},
		{
			"alphaMode":"BLEND",
			"doubleSided":true,
			"extensions":{
				"KHR_materials_specular":{
					"specularFactor":0
				}
			},
			"name":"large_fern_top.006",
			"pbrMetallicRoughness":{
				"baseColorTexture":{
					"index":52
				},
				"metallicFactor":0
			}
		},
		{
			"alphaMode":"BLEND",
			"doubleSided":true,
			"extensions":{
				"KHR_materials_specular":{
					"specularFactor":0
				}
			},
			"name":"rose_bush_bottom.005",
			"pbrMetallicRoughness":{
				"baseColorTexture":{
					"index":53
				},
				"metallicFactor":0
			}
		},
		{
			"alphaMode":"BLEND",
			"doubleSided":true,
			"extensions":{
				"KHR_materials_specular":{
					"specularFactor":0
				}
			},
			"name":"rose_bush_top.005",
			"pbrMetallicRoughness":{
				"baseColorTexture":{
					"index":54
				},
				"metallicFactor":0
			}
		},
		{
			"alphaMode":"BLEND",
			"doubleSided":true,
			"extensions":{
				"KHR_materials_specular":{
					"specularFactor":0
				}
			},
			"name":"peony_bottom.006",
			"pbrMetallicRoughness":{
				"baseColorTexture":{
					"index":55
				},
				"metallicFactor":0
			}
		},
		{
			"alphaMode":"BLEND",
			"doubleSided":true,
			"extensions":{
				"KHR_materials_specular":{
					"specularFactor":0
				}
			},
			"name":"peony_top.006",
			"pbrMetallicRoughness":{
				"baseColorTexture":{
					"index":56
				},
				"metallicFactor":0
			}
		}
	],
	"meshes":[
		{
			"name":"Basalt.005",
			"primitives":[
				{
					"attributes":{
						"POSITION":0,
						"NORMAL":1,
						"TEXCOORD_0":2
					},
					"indices":3,
					"material":0
				},
				{
					"attributes":{
						"POSITION":4,
						"NORMAL":5,
						"TEXCOORD_0":6
					},
					"indices":7,
					"material":1
				},
				{
					"attributes":{
						"POSITION":8,
						"NORMAL":9,
						"TEXCOORD_0":10
					},
					"indices":11,
					"material":2
				},
				{
					"attributes":{
						"POSITION":12,
						"NORMAL":13,
						"TEXCOORD_0":14
					},
					"indices":15,
					"material":3
				}
			]
		},
		{
			"name":"Chest.005",
			"primitives":[
				{
					"attributes":{
						"POSITION":16,
						"NORMAL":17,
						"TEXCOORD_0":18
					},
					"indices":19,
					"material":4
				},
				{
					"attributes":{
						"POSITION":20,
						"NORMAL":21,
						"TEXCOORD_0":22
					},
					"indices":23,
					"material":5
				},
				{
					"attributes":{
						"POSITION":24,
						"NORMAL":25,
						"TEXCOORD_0":26
					},
					"indices":27,
					"material":6
				},
				{
					"attributes":{
						"POSITION":28,
						"NORMAL":29,
						"TEXCOORD_0":30
					},
					"indices":31,
					"material":7
				}
			]
		},
		{
			"name":"Clay.006",
			"primitives":[
				{
					"attributes":{
						"POSITION":32,
						"NORMAL":33,
						"TEXCOORD_0":34
					},
					"indices":35,
					"material":8
				}
			]
		},
		{
			"name":"Coal_Ore.006",
			"primitives":[
				{
					"attributes":{
						"POSITION":36,
						"NORMAL":37,
						"TEXCOORD_0":38
					},
					"indices":39,
					"material":9
				}
			]
		},
		{
			"name":"Cobblestone.005",
			"primitives":[
				{
					"attributes":{
						"POSITION":40,
						"NORMAL":41,
						"TEXCOORD_0":42
					},
					"indices":43,
					"material":10
				}
			]
		},
		{
			"name":"Copper_Ore.005",
			"primitives":[
				{
					"attributes":{
						"POSITION":44,
						"NORMAL":45,
						"TEXCOORD_0":46
					},
					"indices":47,
					"material":11
				}
			]
		},
		{
			"name":"Dandelion.006",
			"primitives":[
				{
					"attributes":{
						"POSITION":48,
						"NORMAL":49,
						"TEXCOORD_0":50
					},
					"indices":51,
					"material":12
				}
			]
		},
		{
			"name":"Dirt.006",
			"primitives":[
				{
					"attributes":{
						"POSITION":52,
						"NORMAL":53,
						"TEXCOORD_0":54
					},
					"indices":55,
					"material":13
				}
			]
		},
		{
			"name":"Emerald_Ore.006",
			"primitives":[
				{
					"attributes":{
						"POSITION":56,
						"NORMAL":57,
						"TEXCOORD_0":58
					},
					"indices":59,
					"material":14
				}
			]
		},
		{
			"name":"Grass_Block.006",
			"primitives":[
				{
					"attributes":{
						"POSITION":60,
						"NORMAL":61,
						"TEXCOORD_0":62
					},
					"indices":63,
					"material":15
				},
				{
					"attributes":{
						"POSITION":64,
						"NORMAL":65,
						"TEXCOORD_0":66
					},
					"indices":67,
					"material":16
				}
			]
		},
		{
			"name":"Gravel.006",
			"primitives":[
				{
					"attributes":{
						"POSITION":68,
						"NORMAL":69,
						"TEXCOORD_0":70
					},
					"indices":71,
					"material":17
				}
			]
		},
		{
			"name":"Iron_Ore.006",
			"primitives":[
				{
					"attributes":{
						"POSITION":72,
						"NORMAL":73,
						"TEXCOORD_0":74
					},
					"indices":75,
					"material":18
				}
			]
		},
		{
			"name":"Kelp.005",
			"primitives":[
				{
					"attributes":{
						"POSITION":76,
						"NORMAL":77,
						"TEXCOORD_0":78
					},
					"indices":79,
					"material":19
				},
				{
					"attributes":{
						"POSITION":80,
						"NORMAL":81,
						"TEXCOORD_0":82
					},
					"indices":83,
					"material":20
				}
			]
		},
		{
			"name":"Magma_Block.005",
			"primitives":[
				{
					"attributes":{
						"POSITION":84,
						"NORMAL":85,
						"TEXCOORD_0":86
					},
					"indices":87,
					"material":21
				}
			]
		},
		{
			"name":"Netherrack.005",
			"primitives":[
				{
					"attributes":{
						"POSITION":88,
						"NORMAL":89,
						"TEXCOORD_0":90
					},
					"indices":91,
					"material":22
				}
			]
		},
		{
			"name":"Obsidian.005",
			"primitives":[
				{
					"attributes":{
						"POSITION":92,
						"NORMAL":93,
						"TEXCOORD_0":94
					},
					"indices":95,
					"material":23
				}
			]
		},
		{
			"name":"Poppy.006",
			"primitives":[
				{
					"attributes":{
						"POSITION":96,
						"NORMAL":97,
						"TEXCOORD_0":98
					},
					"indices":99,
					"material":24
				},
				{
					"attributes":{
						"POSITION":100,
						"NORMAL":101,
						"TEXCOORD_0":102
					},
					"indices":103,
					"material":25
				},
				{
					"attributes":{
						"POSITION":104,
						"NORMAL":105,
						"TEXCOORD_0":106
					},
					"indices":107,
					"material":26
				},
				{
					"attributes":{
						"POSITION":108,
						"NORMAL":109,
						"TEXCOORD_0":110
					},
					"indices":111,
					"material":27
				},
				{
					"attributes":{
						"POSITION":112,
						"NORMAL":113,
						"TEXCOORD_0":114
					},
					"indices":103,
					"material":28
				},
				{
					"attributes":{
						"POSITION":115,
						"NORMAL":116,
						"TEXCOORD_0":117
					},
					"indices":103,
					"material":29
				},
				{
					"attributes":{
						"POSITION":118,
						"NORMAL":119,
						"TEXCOORD_0":120
					},
					"indices":111,
					"material":30
				},
				{
					"attributes":{
						"POSITION":121,
						"NORMAL":122,
						"TEXCOORD_0":123
					},
					"indices":103,
					"material":31
				},
				{
					"attributes":{
						"POSITION":124,
						"NORMAL":125,
						"TEXCOORD_0":126
					},
					"indices":79,
					"material":32
				}
			]
		},
		{
			"name":"Sand.006",
			"primitives":[
				{
					"attributes":{
						"POSITION":127,
						"NORMAL":128,
						"TEXCOORD_0":129
					},
					"indices":130,
					"material":33
				}
			]
		},
		{
			"name":"Short_Grass.006",
			"primitives":[
				{
					"attributes":{
						"POSITION":131,
						"NORMAL":132,
						"TEXCOORD_0":133
					},
					"indices":134,
					"material":34
				},
				{
					"attributes":{
						"POSITION":135,
						"NORMAL":136,
						"TEXCOORD_0":137
					},
					"indices":138,
					"material":35
				}
			]
		},
		{
			"name":"Stone.006",
			"primitives":[
				{
					"attributes":{
						"POSITION":139,
						"NORMAL":140,
						"TEXCOORD_0":141
					},
					"indices":142,
					"material":36
				},
				{
					"attributes":{
						"POSITION":143,
						"NORMAL":144,
						"TEXCOORD_0":145
					},
					"indices":146,
					"material":37
				},
				{
					"attributes":{
						"POSITION":147,
						"NORMAL":148,
						"TEXCOORD_0":149
					},
					"indices":150,
					"material":38
				},
				{
					"attributes":{
						"POSITION":151,
						"NORMAL":152,
						"TEXCOORD_0":153
					},
					"indices":154,
					"material":39
				},
				{
					"attributes":{
						"POSITION":155,
						"NORMAL":156,
						"TEXCOORD_0":157
					},
					"indices":158,
					"material":40
				},
				{
					"attributes":{
						"POSITION":159,
						"NORMAL":160,
						"TEXCOORD_0":161
					},
					"indices":162,
					"material":41
				}
			]
		},
		{
			"name":"Sunflower.006",
			"primitives":[
				{
					"attributes":{
						"POSITION":163,
						"NORMAL":164,
						"TEXCOORD_0":165
					},
					"indices":166,
					"material":42
				},
				{
					"attributes":{
						"POSITION":167,
						"NORMAL":168,
						"TEXCOORD_0":169
					},
					"indices":170,
					"material":43
				},
				{
					"attributes":{
						"POSITION":171,
						"NORMAL":172,
						"TEXCOORD_0":173
					},
					"indices":79,
					"material":44
				},
				{
					"attributes":{
						"POSITION":174,
						"NORMAL":175,
						"TEXCOORD_0":176
					},
					"indices":79,
					"material":45
				},
				{
					"attributes":{
						"POSITION":177,
						"NORMAL":178,
						"TEXCOORD_0":179
					},
					"indices":180,
					"material":46
				},
				{
					"attributes":{
						"POSITION":181,
						"NORMAL":182,
						"TEXCOORD_0":183
					},
					"indices":180,
					"material":47
				},
				{
					"attributes":{
						"POSITION":184,
						"NORMAL":185,
						"TEXCOORD_0":186
					},
					"indices":187,
					"material":48
				},
				{
					"attributes":{
						"POSITION":188,
						"NORMAL":189,
						"TEXCOORD_0":190
					},
					"indices":191,
					"material":49
				},
				{
					"attributes":{
						"POSITION":192,
						"NORMAL":193,
						"TEXCOORD_0":194
					},
					"indices":195,
					"material":50
				},
				{
					"attributes":{
						"POSITION":196,
						"NORMAL":197,
						"TEXCOORD_0":198
					},
					"indices":195,
					"material":51
				},
				{
					"attributes":{
						"POSITION":199,
						"NORMAL":200,
						"TEXCOORD_0":201
					},
					"indices":103,
					"material":52
				},
				{
					"attributes":{
						"POSITION":202,
						"NORMAL":203,
						"TEXCOORD_0":204
					},
					"indices":103,
					"material":53
				},
				{
					"attributes":{
						"POSITION":205,
						"NORMAL":206,
						"TEXCOORD_0":207
					},
					"indices":99,
					"material":54
				},
				{
					"attributes":{
						"POSITION":208,
						"NORMAL":209,
						"TEXCOORD_0":210
					},
					"indices":99,
					"material":55
				}
			]
		}
	],
	"textures":[
		{
			"sampler":0,
			"source":0
		},
		{
			"sampler":0,
			"source":1
		},
		{
			"sampler":0,
			"source":2
		},
		{
			"sampler":0,
			"source":3
		},
		{
			"sampler":0,
			"source":4
		},
		{
			"sampler":0,
			"source":5
		},
		{
			"sampler":0,
			"source":6
		},
		{
			"sampler":0,
			"source":7
		},
		{
			"sampler":0,
			"source":8
		},
		{
			"sampler":0,
			"source":9
		},
		{
			"sampler":0,
			"source":10
		},
		{
			"sampler":0,
			"source":11
		},
		{
			"sampler":0,
			"source":12
		},
		{
			"sampler":0,
			"source":13
		},
		{
			"sampler":0,
			"source":14
		},
		{
			"sampler":0,
			"source":15
		},
		{
			"sampler":0,
			"source":16
		},
		{
			"sampler":0,
			"source":17
		},
		{
			"sampler":0,
			"source":18
		},
		{
			"sampler":0,
			"source":19
		},
		{
			"sampler":0,
			"source":20
		},
		{
			"sampler":0,
			"source":21
		},
		{
			"sampler":0,
			"source":21
		},
		{
			"sampler":0,
			"source":22
		},
		{
			"sampler":0,
			"source":23
		},
		{
			"sampler":0,
			"source":24
		},
		{
			"sampler":0,
			"source":25
		},
		{
			"sampler":0,
			"source":26
		},
		{
			"sampler":0,
			"source":27
		},
		{
			"sampler":0,
			"source":28
		},
		{
			"sampler":0,
			"source":29
		},
		{
			"sampler":0,
			"source":30
		},
		{
			"sampler":0,
			"source":31
		},
		{
			"sampler":0,
			"source":32
		},
		{
			"sampler":0,
			"source":33
		},
		{
			"sampler":0,
			"source":34
		},
		{
			"sampler":0,
			"source":35
		},
		{
			"sampler":0,
			"source":36
		},
		{
			"sampler":0,
			"source":37
		},
		{
			"sampler":0,
			"source":38
		},
		{
			"sampler":0,
			"source":39
		},
		{
			"sampler":0,
			"source":40
		},
		{
			"sampler":0,
			"source":41
		},
		{
			"sampler":0,
			"source":42
		},
		{
			"sampler":0,
			"source":43
		},
		{
			"sampler":0,
			"source":44
		},
		{
			"sampler":0,
			"source":45
		},
		{
			"sampler":0,
			"source":46
		},
		{
			"sampler":0,
			"source":47
		},
		{
			"sampler":0,
			"source":48
		},
		{
			"sampler":0,
			"source":49
		},
		{
			"sampler":0,
			"source":50
		},
		{
			"sampler":0,
			"source":51
		},
		{
			"sampler":0,
			"source":52
		},
		{
			"sampler":0,
			"source":53
		},
		{
			"sampler":0,
			"source":54
		},
		{
			"sampler":0,
			"source":55
		}
	],
	"images":[
		{
			"mimeType":"image/png",
			"name":"basalt_top",
			"uri":"tex/basalt_top.png"
		},
		{
			"mimeType":"image/png",
			"name":"basalt_side",
			"uri":"tex/basalt_side.png"
		},
		{
			"mimeType":"image/png",
			"name":"deepslate_top",
			"uri":"tex/deepslate_top.png"
		},
		{
			"mimeType":"image/png",
			"name":"deepslate",
			"uri":"tex/deepslate.png"
		},
		{
			"mimeType":"image/png",
			"name":"MWO_chest_top",
			"uri":"tex/MWO_chest_top.png"
		},
		{
			"mimeType":"image/png",
			"name":"MWO_chest_side",
			"uri":"tex/MWO_chest_side.png"
		},
		{
			"mimeType":"image/png",
			"name":"MWO_chest_front",
			"uri":"tex/MWO_chest_front.png"
		},
		{
			"mimeType":"image/png",
			"name":"MWO_chest_latch",
			"uri":"tex/MWO_chest_latch.png"
		},
		{
			"mimeType":"image/png",
			"name":"clay",
			"uri":"tex/clay.png"
		},
		{
			"mimeType":"image/png",
			"name":"coal_ore",
			"uri":"tex/coal_ore.png"
		},
		{
			"mimeType":"image/png",
			"name":"cobblestone",
			"uri":"tex/cobblestone.png"
		},
		{
			"mimeType":"image/png",
			"name":"copper_ore",
			"uri":"tex/copper_ore.png"
		},
		{
			"mimeType":"image/png",
			"name":"dandelion",
			"uri":"tex/dandelion.png"
		},
		{
			"mimeType":"image/png",
			"name":"dirt",
			"uri":"tex/dirt.png"
		},
		{
			"mimeType":"image/png",
			"name":"emerald_ore",
			"uri":"tex/emerald_ore.png"
		},
		{
			"mimeType":"image/png",
			"name":"grass_block_top_y",
			"uri":"tex/grass_block_top_y.png"
		},
		{
			"mimeType":"image/png",
			"name":"grass_block_side_y",
			"uri":"tex/grass_block_side_y.png"
		},
		{
			"mimeType":"image/png",
			"name":"gravel",
			"uri":"tex/gravel.png"
		},
		{
			"mimeType":"image/png",
			"name":"iron_ore",
			"uri":"tex/iron_ore.png"
		},
		{
			"mimeType":"image/png",
			"name":"kelp",
			"uri":"tex/kelp.png"
		},
		{
			"mimeType":"image/png",
			"name":"kelp_plant",
			"uri":"tex/kelp_plant.png"
		},
		{
			"mimeType":"image/png",
			"name":"magma",
			"uri":"tex/magma.png"
		},
		{
			"mimeType":"image/png",
			"name":"netherrack",
			"uri":"tex/netherrack.png"
		},
		{
			"mimeType":"image/png",
			"name":"obsidian",
			"uri":"tex/obsidian.png"
		},
		{
			"mimeType":"image/png",
			"name":"poppy",
			"uri":"tex/poppy.png"
		},
		{
			"mimeType":"image/png",
			"name":"blue_orchid",
			"uri":"tex/blue_orchid.png"
		},
		{
			"mimeType":"image/png",
			"name":"allium",
			"uri":"tex/allium.png"
		},
		{
			"mimeType":"image/png",
			"name":"azure_bluet",
			"uri":"tex/azure_bluet.png"
		},
		{
			"mimeType":"image/png",
			"name":"red_tulip",
			"uri":"tex/red_tulip.png"
		},
		{
			"mimeType":"image/png",
			"name":"orange_tulip",
			"uri":"tex/orange_tulip.png"
		},
		{
			"mimeType":"image/png",
			"name":"white_tulip",
			"uri":"tex/white_tulip.png"
		},
		{
			"mimeType":"image/png",
			"name":"pink_tulip",
			"uri":"tex/pink_tulip.png"
		},
		{
			"mimeType":"image/png",
			"name":"oxeye_daisy",
			"uri":"tex/oxeye_daisy.png"
		},
		{
			"mimeType":"image/png",
			"name":"sand",
			"uri":"tex/sand.png"
		},
		{
			"mimeType":"image/png",
			"name":"short_grass_y",
			"uri":"tex/short_grass_y.png"
		},
		{
			"mimeType":"image/png",
			"name":"fern_y",
			"uri":"tex/fern_y.png"
		},
		{
			"mimeType":"image/png",
			"name":"stone",
			"uri":"tex/stone.png"
		},
		{
			"mimeType":"image/png",
			"name":"granite",
			"uri":"tex/granite.png"
		},
		{
			"mimeType":"image/png",
			"name":"diorite",
			"uri":"tex/diorite.png"
		},
		{
			"mimeType":"image/png",
			"name":"andesite",
			"uri":"tex/andesite.png"
		},
		{
			"mimeType":"image/png",
			"name":"blackstone_top",
			"uri":"tex/blackstone_top.png"
		},
		{
			"mimeType":"image/png",
			"name":"blackstone",
			"uri":"tex/blackstone.png"
		},
		{
			"mimeType":"image/png",
			"name":"sunflower_back",
			"uri":"tex/sunflower_back.png"
		},
		{
			"mimeType":"image/png",
			"name":"sunflower_front",
			"uri":"tex/sunflower_front.png"
		},
		{
			"mimeType":"image/png",
			"name":"sunflower_bottom",
			"uri":"tex/sunflower_bottom.png"
		},
		{
			"mimeType":"image/png",
			"name":"sunflower_top",
			"uri":"tex/sunflower_top.png"
		},
		{
			"mimeType":"image/png",
			"name":"lilac_bottom",
			"uri":"tex/lilac_bottom.png"
		},
		{
			"mimeType":"image/png",
			"name":"lilac_top",
			"uri":"tex/lilac_top.png"
		},
		{
			"mimeType":"image/png",
			"name":"tall_grass_bottom_y",
			"uri":"tex/tall_grass_bottom_y.png"
		},
		{
			"mimeType":"image/png",
			"name":"tall_grass_top_y",
			"uri":"tex/tall_grass_top_y.png"
		},
		{
			"mimeType":"image/png",
			"name":"large_fern_bottom_y",
			"uri":"tex/large_fern_bottom_y.png"
		},
		{
			"mimeType":"image/png",
			"name":"large_fern_top_y",
			"uri":"tex/large_fern_top_y.png"
		},
		{
			"mimeType":"image/png",
			"name":"rose_bush_bottom",
			"uri":"tex/rose_bush_bottom.png"
		},
		{
			"mimeType":"image/png",
			"name":"rose_bush_top",
			"uri":"tex/rose_bush_top.png"
		},
		{
			"mimeType":"image/png",
			"name":"peony_bottom",
			"uri":"tex/peony_bottom.png"
		},
		{
			"mimeType":"image/png",
			"name":"peony_top",
			"uri":"tex/peony_top.png"
		}
	],
	"accessors":[
		{
			"bufferView":0,
			"componentType":5126,
			"count":2320,
			"max":[
				71,
				113,
				-35
			],
			"min":[
				-34,
				17,
				-74
			],
			"type":"VEC3"
		},
		{
			"bufferView":1,
			"componentType":5126,
			"count":2320,
			"type":"VEC3"
		},
		{
			"bufferView":2,
			"componentType":5126,
			"count":2320,
			"type":"VEC2"
		},
		{
			"bufferView":3,
			"componentType":5123,
			"count":3480,
			"type":"SCALAR"
		},
		{
			"bufferView":4,
			"componentType":5126,
			"count":4524,
			"max":[
				71,
				113,
				-32
			],
			"min":[
				-34,
				17,
				-74
			],
			"type":"VEC3"
		},
		{
			"bufferView":5,
			"componentType":5126,
			"count":4524,
			"type":"VEC3"
		},
		{
			"bufferView":6,
			"componentType":5126,
			"count":4524,
			"type":"VEC2"
		},
		{
			"bufferView":7,
			"componentType":5123,
			"count":6786,
			"type":"SCALAR"
		},
		{
			"bufferView":8,
			"componentType":5126,
			"count":3628,
			"max":[
				221,
				230,
				0
			],
			"min":[
				-157,
				-232,
				-75
			],
			"type":"VEC3"
		},
		{
			"bufferView":9,
			"componentType":5126,
			"count":3628,
			"type":"VEC3"
		},
		{
			"bufferView":10,
			"componentType":5126,
			"count":3628,
			"type":"VEC2"
		},
		{
			"bufferView":11,
			"componentType":5123,
			"count":5454,
			"type":"SCALAR"
		},
		{
			"bufferView":12,
			"componentType":5126,
			"count":3602,
			"max":[
				220,
				229,
				0
			],
			"min":[
				-157,
				-232,
				-75
			],
			"type":"VEC3"
		},
		{
			"bufferView":13,
			"componentType":5126,
			"count":3602,
			"type":"VEC3"
		},
		{
			"bufferView":14,
			"componentType":5126,
			"count":3602,
			"type":"VEC2"
		},
		{
			"bufferView":15,
			"componentType":5123,
			"count":5406,
			"type":"SCALAR"
		},
		{
			"bufferView":16,
			"componentType":5126,
			"count":8,
			"max":[
				2.9375,
				-8.0625,
				-21
			],
			"min":[
				2.0625,
				-8.9375,
				-21.875
			],
			"type":"VEC3"
		},
		{
			"bufferView":17,
			"componentType":5126,
			"count":8,
			"type":"VEC3"
		},
		{
			"bufferView":18,
			"componentType":5126,
			"count":8,
			"type":"VEC2"
		},
		{
			"bufferView":19,
			"componentType":5123,
			"count":12,
			"type":"SCALAR"
		},
		{
			"bufferView":20,
			"componentType":5126,
			"count":12,
			"max":[
				2.9375,
				-8.0625,
				-21
			],
			"min":[
				2.0625,
				-8.9375,
				-21.875
			],
			"type":"VEC3"
		},
		{
			"bufferView":21,
			"componentType":5126,
			"count":12,
			"type":"VEC3"
		},
		{
			"bufferView":22,
			"componentType":5126,
			"count":12,
			"type":"VEC2"
		},
		{
			"bufferView":23,
			"componentType":5123,
			"count":18,
			"type":"SCALAR"
		},
		{
			"bufferView":24,
			"componentType":5126,
			"count":4,
			"max":[
				2.9375,
				-8.9375,
				-21
			],
			"min":[
				2.0625,
				-8.9375,
				-21.875
			],
			"type":"VEC3"
		},
		{
			"bufferView":25,
			"componentType":5126,
			"count":4,
			"type":"VEC3"
		},
		{
			"bufferView":26,
			"componentType":5126,
			"count":4,
			"type":"VEC2"
		},
		{
			"bufferView":27,
			"componentType":5123,
			"count":6,
			"type":"SCALAR"
		},
		{
			"bufferView":28,
			"componentType":5126,
			"count":24,
			"max":[
				2.5625,
				-8.9375,
				-21.4375
			],
			"min":[
				2.4375,
				-9,
				-21.6875
			],
			"type":"VEC3"
		},
		{
			"bufferView":29,
			"componentType":5126,
			"count":24,
			"type":"VEC3"
		},
		{
			"bufferView":30,
			"componentType":5126,
			"count":24,
			"type":"VEC2"
		},
		{
			"bufferView":31,
			"componentType":5123,
			"count":36,
			"type":"SCALAR"
		},
		{
			"bufferView":32,
			"componentType":5126,
			"count":12,
			"max":[
				-120,
				7,
				-4
			],
			"min":[
				-121,
				6,
				-5
			],
			"type":"VEC3"
		},
		{
			"bufferView":33,
			"componentType":5126,
			"count":12,
			"type":"VEC3"
		},
		{
			"bufferView":34,
			"componentType":5126,
			"count":12,
			"type":"VEC2"
		},
		{
			"bufferView":35,
			"componentType":5123,
			"count":18,
			"type":"SCALAR"
		},
		{
			"bufferView":36,
			"componentType":5126,
			"count":2848,
			"max":[
				218,
				232,
				0
			],
			"min":[
				-206,
				-224,
				-21
			],
			"type":"VEC3"
		},
		{
			"bufferView":37,
			"componentType":5126,
			"count":2848,
			"type":"VEC3"
		},
		{
			"bufferView":38,
			"componentType":5126,
			"count":2848,
			"type":"VEC2"
		},
		{
			"bufferView":39,
			"componentType":5123,
			"count":4272,
			"type":"SCALAR"
		},
		{
			"bufferView":40,
			"componentType":5126,
			"count":127740,
			"max":[
				216,
				234,
				-1
			],
			"min":[
				-213,
				-227,
				-34
			],
			"type":"VEC3"
		},
		{
			"bufferView":41,
			"componentType":5126,
			"count":127740,
			"type":"VEC3"
		},
		{
			"bufferView":42,
			"componentType":5126,
			"count":127740,
			"type":"VEC2"
		},
		{
			"bufferView":43,
			"componentType":5125,
			"count":191610,
			"type":"SCALAR"
		},
		{
			"bufferView":44,
			"componentType":5126,
			"count":1896,
			"max":[
				213,
				241,
				0
			],
			"min":[
				-211,
				-219,
				-22
			],
			"type":"VEC3"
		},
		{
			"bufferView":45,
			"componentType":5126,
			"count":1896,
			"type":"VEC3"
		},
		{
			"bufferView":46,
			"componentType":5126,
			"count":1896,
			"type":"VEC2"
		},
		{
			"bufferView":47,
			"componentType":5123,
			"count":2844,
			"type":"SCALAR"
		},
		{
			"bufferView":48,
			"componentType":5126,
			"count":60,
			"max":[
				78.1084976196289,
				159.79400634765625,
				-19
			],
			"min":[
				-59.9380989074707,
				-170.04600524902344,
				-31
			],
			"type":"VEC3"
		},
		{
			"bufferView":49,
			"componentType":5126,
			"count":60,
			"type":"VEC3"
		},
		{
			"bufferView":50,
			"componentType":5126,
			"count":60,
			"type":"VEC2"
		},
		{
			"bufferView":51,
			"componentType":5123,
			"count":84,
			"type":"SCALAR"
		},
		{
			"bufferView":52,
			"componentType":5126,
			"count":4432,
			"max":[
				227,
				241,
				0
			],
			"min":[
				-207,
				-222,
				-54
			],
			"type":"VEC3"
		},
		{
			"bufferView":53,
			"componentType":5126,
			"count":4432,
			"type":"VEC3"
		},
		{
			"bufferView":54,
			"componentType":5126,
			"count":4432,
			"type":"VEC2"
		},
		{
			"bufferView":55,
			"componentType":5123,
			"count":6648,
			"type":"SCALAR"
		},
		{
			"bufferView":56,
			"componentType":5126,
			"count":16,
			"max":[
				187,
				183,
				-14
			],
			"min":[
				42,
				-157,
				-19
			],
			"type":"VEC3"
		},
		{
			"bufferView":57,
			"componentType":5126,
			"count":16,
			"type":"VEC3"
		},
		{
			"bufferView":58,
			"componentType":5126,
			"count":16,
			"type":"VEC2"
		},
		{
			"bufferView":59,
			"componentType":5123,
			"count":24,
			"type":"SCALAR"
		},
		{
			"bufferView":60,
			"componentType":5126,
			"count":69364,
			"max":[
				217,
				232,
				-7
			],
			"min":[
				-207,
				-226,
				-50
			],
			"type":"VEC3"
		},
		{
			"bufferView":61,
			"componentType":5126,
			"count":69364,
			"type":"VEC3"
		},
		{
			"bufferView":62,
			"componentType":5126,
			"count":69364,
			"type":"VEC2"
		},
		{
			"bufferView":63,
			"componentType":5125,
			"count":104046,
			"type":"SCALAR"
		},
		{
			"bufferView":64,
			"componentType":5126,
			"count":102716,
			"max":[
				217,
				232,
				-6
			],
			"min":[
				-207,
				-226,
				-50
			],
			"type":"VEC3"
		},
		{
			"bufferView":65,
			"componentType":5126,
			"count":102716,
			"type":"VEC3"
		},
		{
			"bufferView":66,
			"componentType":5126,
			"count":102716,
			"type":"VEC2"
		},
		{
			"bufferView":67,
			"componentType":5125,
			"count":154074,
			"type":"SCALAR"
		},
		{
			"bufferView":68,
			"componentType":5126,
			"count":8608,
			"max":[
				218,
				220,
				0
			],
			"min":[
				-194,
				-208,
				-53
			],
			"type":"VEC3"
		},
		{
			"bufferView":69,
			"componentType":5126,
			"count":8608,
			"type":"VEC3"
		},
		{
			"bufferView":70,
			"componentType":5126,
			"count":8608,
			"type":"VEC2"
		},
		{
			"bufferView":71,
			"componentType":5123,
			"count":12912,
			"type":"SCALAR"
		},
		{
			"bufferView":72,
			"componentType":5126,
			"count":1468,
			"max":[
				215,
				225,
				0
			],
			"min":[
				-210,
				-215,
				-52
			],
			"type":"VEC3"
		},
		{
			"bufferView":73,
			"componentType":5126,
			"count":1468,
			"type":"VEC3"
		},
		{
			"bufferView":74,
			"componentType":5126,
			"count":1468,
			"type":"VEC2"
		},
		{
			"bufferView":75,
			"componentType":5123,
			"count":2202,
			"type":"SCALAR"
		},
		{
			"bufferView":76,
			"componentType":5126,
			"count":16,
			"max":[
				-123.0469970703125,
				-10.046899795532227,
				-3
			],
			"min":[
				-124.9530029296875,
				-11.953100204467773,
				-6
			],
			"type":"VEC3"
		},
		{
			"bufferView":77,
			"componentType":5126,
			"count":16,
			"type":"VEC3"
		},
		{
			"bufferView":78,
			"componentType":5126,
			"count":16,
			"type":"VEC2"
		},
		{
			"bufferView":79,
			"componentType":5123,
			"count":24,
			"type":"SCALAR"
		},
		{
			"bufferView":80,
			"componentType":5126,
			"count":64,
			"max":[
				-123.0469970703125,
				-10.046899795532227,
				0
			],
			"min":[
				-124.9530029296875,
				-11.953100204467773,
				-5
			],
			"type":"VEC3"
		},
		{
			"bufferView":81,
			"componentType":5126,
			"count":64,
			"type":"VEC3"
		},
		{
			"bufferView":82,
			"componentType":5126,
			"count":64,
			"type":"VEC2"
		},
		{
			"bufferView":83,
			"componentType":5123,
			"count":96,
			"type":"SCALAR"
		},
		{
			"bufferView":84,
			"componentType":5126,
			"count":76,
			"max":[
				29,
				73,
				-40
			],
			"min":[
				24,
				70,
				-48
			],
			"type":"VEC3"
		},
		{
			"bufferView":85,
			"componentType":5126,
			"count":76,
			"type":"VEC3"
		},
		{
			"bufferView":86,
			"componentType":5126,
			"count":76,
			"type":"VEC2"
		},
		{
			"bufferView":87,
			"componentType":5123,
			"count":114,
			"type":"SCALAR"
		},
		{
			"bufferView":88,
			"componentType":5126,
			"count":92,
			"max":[
				29,
				75,
				-42
			],
			"min":[
				22,
				68,
				-57
			],
			"type":"VEC3"
		},
		{
			"bufferView":89,
			"componentType":5126,
			"count":92,
			"type":"VEC3"
		},
		{
			"bufferView":90,
			"componentType":5126,
			"count":92,
			"type":"VEC2"
		},
		{
			"bufferView":91,
			"componentType":5123,
			"count":138,
			"type":"SCALAR"
		},
		{
			"bufferView":92,
			"componentType":5126,
			"count":232,
			"max":[
				38,
				75,
				-40
			],
			"min":[
				23,
				44,
				-64
			],
			"type":"VEC3"
		},
		{
			"bufferView":93,
			"componentType":5126,
			"count":232,
			"type":"VEC3"
		},
		{
			"bufferView":94,
			"componentType":5126,
			"count":232,
			"type":"VEC2"
		},
		{
			"bufferView":95,
			"componentType":5123,
			"count":348,
			"type":"SCALAR"
		},
		{
			"bufferView":96,
			"componentType":5126,
			"count":56,
			"max":[
				142.93099975585938,
				207.052001953125,
				-20
			],
			"min":[
				-92.94960021972656,
				-137.97300720214844,
				-31
			],
			"type":"VEC3"
		},
		{
			"bufferView":97,
			"componentType":5126,
			"count":56,
			"type":"VEC3"
		},
		{
			"bufferView":98,
			"componentType":5126,
			"count":56,
			"type":"VEC2"
		},
		{
			"bufferView":99,
			"componentType":5123,
			"count":84,
			"type":"SCALAR"
		},
		{
			"bufferView":100,
			"componentType":5126,
			"count":32,
			"max":[
				122.91500091552734,
				162.98199462890625,
				-19
			],
			"min":[
				52.970001220703125,
				-146.8459930419922,
				-30
			],
			"type":"VEC3"
		},
		{
			"bufferView":101,
			"componentType":5126,
			"count":32,
			"type":"VEC3"
		},
		{
			"bufferView":102,
			"componentType":5126,
			"count":32,
			"type":"VEC2"
		},
		{
			"bufferView":103,
			"componentType":5123,
			"count":48,
			"type":"SCALAR"
		},
		{
			"bufferView":104,
			"componentType":5126,
			"count":72,
			"max":[
				106.12799835205078,
				99.8927993774414,
				-8
			],
			"min":[
				-157.03700256347656,
				-212.0189971923828,
				-30
			],
			"type":"VEC3"
		},
		{
			"bufferView":105,
			"componentType":5126,
			"count":72,
			"type":"VEC3"
		},
		{
			"bufferView":106,
			"componentType":5126,
			"count":72,
			"type":"VEC2"
		},
		{
			"bufferView":107,
			"componentType":5123,
			"count":108,
			"type":"SCALAR"
		},
		{
			"bufferView":108,
			"componentType":5126,
			"count":24,
			"max":[
				-76.97329711914062,
				-116.13800048828125,
				-21
			],
			"min":[
				-81.11109924316406,
				-117.86499786376953,
				-23
			],
			"type":"VEC3"
		},
		{
			"bufferView":109,
			"componentType":5126,
			"count":24,
			"type":"VEC3"
		},
		{
			"bufferView":110,
			"componentType":5126,
			"count":24,
			"type":"VEC2"
		},
		{
			"bufferView":111,
			"componentType":5123,
			"count":36,
			"type":"SCALAR"
		},
		{
			"bufferView":112,
			"componentType":5126,
			"count":32,
			"max":[
				124.96800231933594,
				23.857099533081055,
				-8
			],
			"min":[
				-157.09100341796875,
				-147.98800659179688,
				-30
			],
			"type":"VEC3"
		},
		{
			"bufferView":113,
			"componentType":5126,
			"count":32,
			"type":"VEC3"
		},
		{
			"bufferView":114,
			"componentType":5126,
			"count":32,
			"type":"VEC2"
		},
		{
			"bufferView":115,
			"componentType":5126,
			"count":32,
			"max":[
				121.08999633789062,
				60.986900329589844,
				-13
			],
			"min":[
				-27.028200149536133,
				-150.89700317382812,
				-30
			],
			"type":"VEC3"
		},
		{
			"bufferView":116,
			"componentType":5126,
			"count":32,
			"type":"VEC3"
		},
		{
			"bufferView":117,
			"componentType":5126,
			"count":32,
			"type":"VEC2"
		},
		{
			"bufferView":118,
			"componentType":5126,
			"count":24,
			"max":[
				-25.04199981689453,
				62.808799743652344,
				-15
			],
			"min":[
				-156.05999755859375,
				-1.099850058555603,
				-30
			],
			"type":"VEC3"
		},
		{
			"bufferView":119,
			"componentType":5126,
			"count":24,
			"type":"VEC3"
		},
		{
			"bufferView":120,
			"componentType":5126,
			"count":24,
			"type":"VEC2"
		},
		{
			"bufferView":121,
			"componentType":5126,
			"count":32,
			"max":[
				79.07980346679688,
				111.98999786376953,
				-27
			],
			"min":[
				-86.9989013671875,
				-136.05499267578125,
				-32
			],
			"type":"VEC3"
		},
		{
			"bufferView":122,
			"componentType":5126,
			"count":32,
			"type":"VEC3"
		},
		{
			"bufferView":123,
			"componentType":5126,
			"count":32,
			"type":"VEC2"
		},
		{
			"bufferView":124,
			"componentType":5126,
			"count":16,
			"max":[
				73.79429626464844,
				111.07099914550781,
				-27
			],
			"min":[
				59.20970153808594,
				-202.05499267578125,
				-30
			],
			"type":"VEC3"
		},
		{
			"bufferView":125,
			"componentType":5126,
			"count":16,
			"type":"VEC3"
		},
		{
			"bufferView":126,
			"componentType":5126,
			"count":16,
			"type":"VEC2"
		},
		{
			"bufferView":127,
			"componentType":5126,
			"count":64732,
			"max":[
				230,
				241,
				0
			],
			"min":[
				-221,
				-238,
				-14
			],
			"type":"VEC3"
		},
		{
			"bufferView":128,
			"componentType":5126,
			"count":64732,
			"type":"VEC3"
		},
		{
			"bufferView":129,
			"componentType":5126,
			"count":64732,
			"type":"VEC2"
		},
		{
			"bufferView":130,
			"componentType":5123,
			"count":97098,
			"type":"SCALAR"
		},
		{
			"bufferView":131,
			"componentType":5126,
			"count":50556,
			"max":[
				208.91000366210938,
				216.8979949951172,
				-8
			],
			"min":[
				-201.927001953125,
				-216,
				-49
			],
			"type":"VEC3"
		},
		{
			"bufferView":132,
			"componentType":5126,
			"count":50556,
			"type":"VEC3"
		},
		{
			"bufferView":133,
			"componentType":5126,
			"count":50556,
			"type":"VEC2"
		},
		{
			"bufferView":134,
			"componentType":5123,
			"count":74592,
			"type":"SCALAR"
		},
		{
			"bufferView":135,
			"componentType":5126,
			"count":14518,
			"max":[
				203.82200622558594,
				208.10400390625,
				-8
			],
			"min":[
				-199.9669952392578,
				-210.97500610351562,
				-39
			],
			"type":"VEC3"
		},
		{
			"bufferView":136,
			"componentType":5126,
			"count":14518,
			"type":"VEC3"
		},
		{
			"bufferView":137,
			"componentType":5126,
			"count":14518,
			"type":"VEC2"
		},
		{
			"bufferView":138,
			"componentType":5123,
			"count":21408,
			"type":"SCALAR"
		},
		{
			"bufferView":139,
			"componentType":5126,
			"count":41516,
			"max":[
				229,
				241,
				0
			],
			"min":[
				-216,
				-234,
				-62
			],
			"type":"VEC3"
		},
		{
			"bufferView":140,
			"componentType":5126,
			"count":41516,
			"type":"VEC3"
		},
		{
			"bufferView":141,
			"componentType":5126,
			"count":41516,
			"type":"VEC2"
		},
		{
			"bufferView":142,
			"componentType":5123,
			"count":62274,
			"type":"SCALAR"
		},
		{
			"bufferView":143,
			"componentType":5126,
			"count":3104,
			"max":[
				223,
				224,
				0
			],
			"min":[
				-180,
				-220,
				-52
			],
			"type":"VEC3"
		},
		{
			"bufferView":144,
			"componentType":5126,
			"count":3104,
			"type":"VEC3"
		},
		{
			"bufferView":145,
			"componentType":5126,
			"count":3104,
			"type":"VEC2"
		},
		{
			"bufferView":146,
			"componentType":5123,
			"count":4656,
			"type":"SCALAR"
		},
		{
			"bufferView":147,
			"componentType":5126,
			"count":3512,
			"max":[
				217,
				228,
				0
			],
			"min":[
				-193,
				-225,
				-40
			],
			"type":"VEC3"
		},
		{
			"bufferView":148,
			"componentType":5126,
			"count":3512,
			"type":"VEC3"
		},
		{
			"bufferView":149,
			"componentType":5126,
			"count":3512,
			"type":"VEC2"
		},
		{
			"bufferView":150,
			"componentType":5123,
			"count":5268,
			"type":"SCALAR"
		},
		{
			"bufferView":151,
			"componentType":5126,
			"count":3104,
			"max":[
				215,
				230,
				0
			],
			"min":[
				-187,
				-227,
				-38
			],
			"type":"VEC3"
		},
		{
			"bufferView":152,
			"componentType":5126,
			"count":3104,
			"type":"VEC3"
		},
		{
			"bufferView":153,
			"componentType":5126,
			"count":3104,
			"type":"VEC2"
		},
		{
			"bufferView":154,
			"componentType":5123,
			"count":4656,
			"type":"SCALAR"
		},
		{
			"bufferView":155,
			"componentType":5126,
			"count":14732,
			"max":[
				98,
				123,
				-16
			],
			"min":[
				-52,
				9,
				-75
			],
			"type":"VEC3"
		},
		{
			"bufferView":156,
			"componentType":5126,
			"count":14732,
			"type":"VEC3"
		},
		{
			"bufferView":157,
			"componentType":5126,
			"count":14732,
			"type":"VEC2"
		},
		{
			"bufferView":158,
			"componentType":5123,
			"count":22098,
			"type":"SCALAR"
		},
		{
			"bufferView":159,
			"componentType":5126,
			"count":25648,
			"max":[
				98,
				122,
				-15
			],
			"min":[
				-52,
				9,
				-75
			],
			"type":"VEC3"
		},
		{
			"bufferView":160,
			"componentType":5126,
			"count":25648,
			"type":"VEC3"
		},
		{
			"bufferView":161,
			"componentType":5126,
			"count":25648,
			"type":"VEC2"
		},
		{
			"bufferView":162,
			"componentType":5123,
			"count":38472,
			"type":"SCALAR"
		},
		{
			"bufferView":163,
			"componentType":5126,
			"count":8,
			"max":[
				-40.21480178833008,
				41.91709899902344,
				-26.054100036621094
			],
			"min":[
				-41.56809997558594,
				40.05400085449219,
				-26.993799209594727
			],
			"type":"VEC3"
		},
		{
			"bufferView":164,
			"componentType":5126,
			"count":8,
			"type":"VEC3"
		},
		{
			"bufferView":165,
			"componentType":5126,
			"count":8,
			"type":"VEC2"
		},
		{
			"bufferView":166,
			"componentType":5123,
			"count":12,
			"type":"SCALAR"
		},
		{
			"bufferView":167,
			"componentType":5126,
			"count":8,
			"max":[
				-40.208900451660156,
				41.91709899902344,
				-26.05620002746582
			],
			"min":[
				-41.562198638916016,
				40.05400085449219,
				-26.995899200439453
			],
			"type":"VEC3"
		},
		{
			"bufferView":168,
			"componentType":5126,
			"count":8,
			"type":"VEC3"
		},
		{
			"bufferView":169,
			"componentType":5126,
			"count":8,
			"type":"VEC2"
		},
		{
			"bufferView":170,
			"componentType":5123,
			"count":12,
			"type":"SCALAR"
		},
		{
			"bufferView":171,
			"componentType":5126,
			"count":16,
			"max":[
				-40.042198181152344,
				41.85770034790039,
				-25
			],
			"min":[
				-41.95970153808594,
				40.088401794433594,
				-26
			],
			"type":"VEC3"
		},
		{
			"bufferView":172,
			"componentType":5126,
			"count":16,
			"type":"VEC3"
		},
		{
			"bufferView":173,
			"componentType":5126,
			"count":16,
			"type":"VEC2"
		},
		{
			"bufferView":174,
			"componentType":5126,
			"count":16,
			"max":[
				-40.042198181152344,
				41.85770034790039,
				-26
			],
			"min":[
				-41.95970153808594,
				40.088401794433594,
				-27
			],
			"type":"VEC3"
		},
		{
			"bufferView":175,
			"componentType":5126,
			"count":16,
			"type":"VEC3"
		},
		{
			"bufferView":176,
			"componentType":5126,
			"count":16,
			"type":"VEC2"
		},
		{
			"bufferView":177,
			"componentType":5126,
			"count":96,
			"max":[
				126.9729995727539,
				127.93499755859375,
				-17
			],
			"min":[
				-159.05999755859375,
				-107.95500183105469,
				-37
			],
			"type":"VEC3"
		},
		{
			"bufferView":178,
			"componentType":5126,
			"count":96,
			"type":"VEC3"
		},
		{
			"bufferView":179,
			"componentType":5126,
			"count":96,
			"type":"VEC2"
		},
		{
			"bufferView":180,
			"componentType":5123,
			"count":144,
			"type":"SCALAR"
		},
		{
			"bufferView":181,
			"componentType":5126,
			"count":96,
			"max":[
				126.9729995727539,
				127.93499755859375,
				-18
			],
			"min":[
				-159.05999755859375,
				-107.95500183105469,
				-38
			],
			"type":"VEC3"
		},
		{
			"bufferView":182,
			"componentType":5126,
			"count":96,
			"type":"VEC3"
		},
		{
			"bufferView":183,
			"componentType":5126,
			"count":96,
			"type":"VEC2"
		},
		{
			"bufferView":184,
			"componentType":5126,
			"count":19190,
			"max":[
				213.01400756835938,
				205.85800170898438,
				-8
			],
			"min":[
				-191.85499572753906,
				-212.91099548339844,
				-41
			],
			"type":"VEC3"
		},
		{
			"bufferView":185,
			"componentType":5126,
			"count":19190,
			"type":"VEC3"
		},
		{
			"bufferView":186,
			"componentType":5126,
			"count":19190,
			"type":"VEC2"
		},
		{
			"bufferView":187,
			"componentType":5123,
			"count":28368,
			"type":"SCALAR"
		},
		{
			"bufferView":188,
			"componentType":5126,
			"count":19186,
			"max":[
				213.01400756835938,
				205.85800170898438,
				-9
			],
			"min":[
				-191.85499572753906,
				-212.91099548339844,
				-42
			],
			"type":"VEC3"
		},
		{
			"bufferView":189,
			"componentType":5126,
			"count":19186,
			"type":"VEC3"
		},
		{
			"bufferView":190,
			"componentType":5126,
			"count":19186,
			"type":"VEC2"
		},
		{
			"bufferView":191,
			"componentType":5123,
			"count":28368,
			"type":"SCALAR"
		},
		{
			"bufferView":192,
			"componentType":5126,
			"count":6864,
			"max":[
				191.07000732421875,
				203.98800659179688,
				-8
			],
			"min":[
				-184.83700561523438,
				-205.9320068359375,
				-41
			],
			"type":"VEC3"
		},
		{
			"bufferView":193,
			"componentType":5126,
			"count":6864,
			"type":"VEC3"
		},
		{
			"bufferView":194,
			"componentType":5126,
			"count":6864,
			"type":"VEC2"
		},
		{
			"bufferView":195,
			"componentType":5123,
			"count":10092,
			"type":"SCALAR"
		},
		{
			"bufferView":196,
			"componentType":5126,
			"count":6864,
			"max":[
				191.07000732421875,
				203.98800659179688,
				-9
			],
			"min":[
				-184.83700561523438,
				-205.9320068359375,
				-42
			],
			"type":"VEC3"
		},
		{
			"bufferView":197,
			"componentType":5126,
			"count":6864,
			"type":"VEC3"
		},
		{
			"bufferView":198,
			"componentType":5126,
			"count":6864,
			"type":"VEC2"
		},
		{
			"bufferView":199,
			"componentType":5126,
			"count":32,
			"max":[
				-41.91400146484375,
				106.8499984741211,
				-8
			],
			"min":[
				-92.02079772949219,
				16.13290023803711,
				-30
			],
			"type":"VEC3"
		},
		{
			"bufferView":200,
			"componentType":5126,
			"count":32,
			"type":"VEC3"
		},
		{
			"bufferView":201,
			"componentType":5126,
			"count":32,
			"type":"VEC2"
		},
		{
			"bufferView":202,
			"componentType":5126,
			"count":32,
			"max":[
				-41.91400146484375,
				106.8499984741211,
				-9
			],
			"min":[
				-92.02079772949219,
				16.13290023803711,
				-31
			],
			"type":"VEC3"
		},
		{
			"bufferView":203,
			"componentType":5126,
			"count":32,
			"type":"VEC3"
		},
		{
			"bufferView":204,
			"componentType":5126,
			"count":32,
			"type":"VEC2"
		},
		{
			"bufferView":205,
			"componentType":5126,
			"count":56,
			"max":[
				121.11100006103516,
				126.80400085449219,
				-19
			],
			"min":[
				-158.0030059814453,
				-52.972599029541016,
				-31
			],
			"type":"VEC3"
		},
		{
			"bufferView":206,
			"componentType":5126,
			"count":56,
			"type":"VEC3"
		},
		{
			"bufferView":207,
			"componentType":5126,
			"count":56,
			"type":"VEC2"
		},
		{
			"bufferView":208,
			"componentType":5126,
			"count":56,
			"max":[
				121.11100006103516,
				126.80400085449219,
				-20
			],
			"min":[
				-158.0030059814453,
				-52.972599029541016,
				-32
			],
			"type":"VEC3"
		},
		{
			"bufferView":209,
			"componentType":5126,
			"count":56,
			"type":"VEC3"
		},
		{
			"bufferView":210,
			"componentType":5126,
			"count":56,
			"type":"VEC2"
		}
	],
	"bufferViews":[
		{
			"buffer":0,
			"byteLength":27840,
			"byteOffset":0,
			"target":34962
		},
		{
			"buffer":0,
			"byteLength":27840,
			"byteOffset":27840,
			"target":34962
		},
		{
			"buffer":0,
			"byteLength":18560,
			"byteOffset":55680,
			"target":34962
		},
		{
			"buffer":0,
			"byteLength":6960,
			"byteOffset":74240,
			"target":34963
		},
		{
			"buffer":0,
			"byteLength":54288,
			"byteOffset":81200,
			"target":34962
		},
		{
			"buffer":0,
			"byteLength":54288,
			"byteOffset":135488,
			"target":34962
		},
		{
			"buffer":0,
			"byteLength":36192,
			"byteOffset":189776,
			"target":34962
		},
		{
			"buffer":0,
			"byteLength":13572,
			"byteOffset":225968,
			"target":34963
		},
		{
			"buffer":0,
			"byteLength":43536,
			"byteOffset":239540,
			"target":34962
		},
		{
			"buffer":0,
			"byteLength":43536,
			"byteOffset":283076,
			"target":34962
		},
		{
			"buffer":0,
			"byteLength":29024,
			"byteOffset":326612,
			"target":34962
		},
		{
			"buffer":0,
			"byteLength":10908,
			"byteOffset":355636,
			"target":34963
		},
		{
			"buffer":0,
			"byteLength":43224,
			"byteOffset":366544,
			"target":34962
		},
		{
			"buffer":0,
			"byteLength":43224,
			"byteOffset":409768,
			"target":34962
		},
		{
			"buffer":0,
			"byteLength":28816,
			"byteOffset":452992,
			"target":34962
		},
		{
			"buffer":0,
			"byteLength":10812,
			"byteOffset":481808,
			"target":34963
		},
		{
			"buffer":0,
			"byteLength":96,
			"byteOffset":492620,
			"target":34962
		},
		{
			"buffer":0,
			"byteLength":96,
			"byteOffset":492716,
			"target":34962
		},
		{
			"buffer":0,
			"byteLength":64,
			"byteOffset":492812,
			"target":34962
		},
		{
			"buffer":0,
			"byteLength":24,
			"byteOffset":492876,
			"target":34963
		},
		{
			"buffer":0,
			"byteLength":144,
			"byteOffset":492900,
			"target":34962
		},
		{
			"buffer":0,
			"byteLength":144,
			"byteOffset":493044,
			"target":34962
		},
		{
			"buffer":0,
			"byteLength":96,
			"byteOffset":493188,
			"target":34962
		},
		{
			"buffer":0,
			"byteLength":36,
			"byteOffset":493284,
			"target":34963
		},
		{
			"buffer":0,
			"byteLength":48,
			"byteOffset":493320,
			"target":34962
		},
		{
			"buffer":0,
			"byteLength":48,
			"byteOffset":493368,
			"target":34962
		},
		{
			"buffer":0,
			"byteLength":32,
			"byteOffset":493416,
			"target":34962
		},
		{
			"buffer":0,
			"byteLength":12,
			"byteOffset":493448,
			"target":34963
		},
		{
			"buffer":0,
			"byteLength":288,
			"byteOffset":493460,
			"target":34962
		},
		{
			"buffer":0,
			"byteLength":288,
			"byteOffset":493748,
			"target":34962
		},
		{
			"buffer":0,
			"byteLength":192,
			"byteOffset":494036,
			"target":34962
		},
		{
			"buffer":0,
			"byteLength":72,
			"byteOffset":494228,
			"target":34963
		},
		{
			"buffer":0,
			"byteLength":144,
			"byteOffset":494300,
			"target":34962
		},
		{
			"buffer":0,
			"byteLength":144,
			"byteOffset":494444,
			"target":34962
		},
		{
			"buffer":0,
			"byteLength":96,
			"byteOffset":494588,
			"target":34962
		},
		{
			"buffer":0,
			"byteLength":36,
			"byteOffset":494684,
			"target":34963
		},
		{
			"buffer":0,
			"byteLength":34176,
			"byteOffset":494720,
			"target":34962
		},
		{
			"buffer":0,
			"byteLength":34176,
			"byteOffset":528896,
			"target":34962
		},
		{
			"buffer":0,
			"byteLength":22784,
			"byteOffset":563072,
			"target":34962
		},
		{
			"buffer":0,
			"byteLength":8544,
			"byteOffset":585856,
			"target":34963
		},
		{
			"buffer":0,
			"byteLength":1532880,
			"byteOffset":594400,
			"target":34962
		},
		{
			"buffer":0,
			"byteLength":1532880,
			"byteOffset":2127280,
			"target":34962
		},
		{
			"buffer":0,
			"byteLength":1021920,
			"byteOffset":3660160,
			"target":34962
		},
		{
			"buffer":0,
			"byteLength":766440,
			"byteOffset":4682080,
			"target":34963
		},
		{
			"buffer":0,
			"byteLength":22752,
			"byteOffset":5448520,
			"target":34962
		},
		{
			"buffer":0,
			"byteLength":22752,
			"byteOffset":5471272,
			"target":34962
		},
		{
			"buffer":0,
			"byteLength":15168,
			"byteOffset":5494024,
			"target":34962
		},
		{
			"buffer":0,
			"byteLength":5688,
			"byteOffset":5509192,
			"target":34963
		},
		{
			"buffer":0,
			"byteLength":720,
			"byteOffset":5514880,
			"target":34962
		},
		{
			"buffer":0,
			"byteLength":720,
			"byteOffset":5515600,
			"target":34962
		},
		{
			"buffer":0,
			"byteLength":480,
			"byteOffset":5516320,
			"target":34962
		},
		{
			"buffer":0,
			"byteLength":168,
			"byteOffset":5516800,
			"target":34963
		},
		{
			"buffer":0,
			"byteLength":53184,
			"byteOffset":5516968,
			"target":34962
		},
		{
			"buffer":0,
			"byteLength":53184,
			"byteOffset":5570152,
			"target":34962
		},
		{
			"buffer":0,
			"byteLength":35456,
			"byteOffset":5623336,
			"target":34962
		},
		{
			"buffer":0,
			"byteLength":13296,
			"byteOffset":5658792,
			"target":34963
		},
		{
			"buffer":0,
			"byteLength":192,
			"byteOffset":5672088,
			"target":34962
		},
		{
			"buffer":0,
			"byteLength":192,
			"byteOffset":5672280,
			"target":34962
		},
		{
			"buffer":0,
			"byteLength":128,
			"byteOffset":5672472,
			"target":34962
		},
		{
			"buffer":0,
			"byteLength":48,
			"byteOffset":5672600,
			"target":34963
		},
		{
			"buffer":0,
			"byteLength":832368,
			"byteOffset":5672648,
			"target":34962
		},
		{
			"buffer":0,
			"byteLength":832368,
			"byteOffset":6505016,
			"target":34962
		},
		{
			"buffer":0,
			"byteLength":554912,
			"byteOffset":7337384,
			"target":34962
		},
		{
			"buffer":0,
			"byteLength":416184,
			"byteOffset":7892296,
			"target":34963
		},
		{
			"buffer":0,
			"byteLength":1232592,
			"byteOffset":8308480,
			"target":34962
		},
		{
			"buffer":0,
			"byteLength":1232592,
			"byteOffset":9541072,
			"target":34962
		},
		{
			"buffer":0,
			"byteLength":821728,
			"byteOffset":10773664,
			"target":34962
		},
		{
			"buffer":0,
			"byteLength":616296,
			"byteOffset":11595392,
			"target":34963
		},
		{
			"buffer":0,
			"byteLength":103296,
			"byteOffset":12211688,
			"target":34962
		},
		{
			"buffer":0,
			"byteLength":103296,
			"byteOffset":12314984,
			"target":34962
		},
		{
			"buffer":0,
			"byteLength":68864,
			"byteOffset":12418280,
			"target":34962
		},
		{
			"buffer":0,
			"byteLength":25824,
			"byteOffset":12487144,
			"target":34963
		},
		{
			"buffer":0,
			"byteLength":17616,
			"byteOffset":12512968,
			"target":34962
		},
		{
			"buffer":0,
			"byteLength":17616,
			"byteOffset":12530584,
			"target":34962
		},
		{
			"buffer":0,
			"byteLength":11744,
			"byteOffset":12548200,
			"target":34962
		},
		{
			"buffer":0,
			"byteLength":4404,
			"byteOffset":12559944,
			"target":34963
		},
		{
			"buffer":0,
			"byteLength":192,
			"byteOffset":12564348,
			"target":34962
		},
		{
			"buffer":0,
			"byteLength":192,
			"byteOffset":12564540,
			"target":34962
		},
		{
			"buffer":0,
			"byteLength":128,
			"byteOffset":12564732,
			"target":34962
		},
		{
			"buffer":0,
			"byteLength":48,
			"byteOffset":12564860,
			"target":34963
		},
		{
			"buffer":0,
			"byteLength":768,
			"byteOffset":12564908,
			"target":34962
		},
		{
			"buffer":0,
			"byteLength":768,
			"byteOffset":12565676,
			"target":34962
		},
		{
			"buffer":0,
			"byteLength":512,
			"byteOffset":12566444,
			"target":34962
		},
		{
			"buffer":0,
			"byteLength":192,
			"byteOffset":12566956,
			"target":34963
		},
		{
			"buffer":0,
			"byteLength":912,
			"byteOffset":12567148,
			"target":34962
		},
		{
			"buffer":0,
			"byteLength":912,
			"byteOffset":12568060,
			"target":34962
		},
		{
			"buffer":0,
			"byteLength":608,
			"byteOffset":12568972,
			"target":34962
		},
		{
			"buffer":0,
			"byteLength":228,
			"byteOffset":12569580,
			"target":34963
		},
		{
			"buffer":0,
			"byteLength":1104,
			"byteOffset":12569808,
			"target":34962
		},
		{
			"buffer":0,
			"byteLength":1104,
			"byteOffset":12570912,
			"target":34962
		},
		{
			"buffer":0,
			"byteLength":736,
			"byteOffset":12572016,
			"target":34962
		},
		{
			"buffer":0,
			"byteLength":276,
			"byteOffset":12572752,
			"target":34963
		},
		{
			"buffer":0,
			"byteLength":2784,
			"byteOffset":12573028,
			"target":34962
		},
		{
			"buffer":0,
			"byteLength":2784,
			"byteOffset":12575812,
			"target":34962
		},
		{
			"buffer":0,
			"byteLength":1856,
			"byteOffset":12578596,
			"target":34962
		},
		{
			"buffer":0,
			"byteLength":696,
			"byteOffset":12580452,
			"target":34963
		},
		{
			"buffer":0,
			"byteLength":672,
			"byteOffset":12581148,
			"target":34962
		},
		{
			"buffer":0,
			"byteLength":672,
			"byteOffset":12581820,
			"target":34962
		},
		{
			"buffer":0,
			"byteLength":448,
			"byteOffset":12582492,
			"target":34962
		},
		{
			"buffer":0,
			"byteLength":168,
			"byteOffset":12582940,
			"target":34963
		},
		{
			"buffer":0,
			"byteLength":384,
			"byteOffset":12583108,
			"target":34962
		},
		{
			"buffer":0,
			"byteLength":384,
			"byteOffset":12583492,
			"target":34962
		},
		{
			"buffer":0,
			"byteLength":256,
			"byteOffset":12583876,
			"target":34962
		},
		{
			"buffer":0,
			"byteLength":96,
			"byteOffset":12584132,
			"target":34963
		},
		{
			"buffer":0,
			"byteLength":864,
			"byteOffset":12584228,
			"target":34962
		},
		{
			"buffer":0,
			"byteLength":864,
			"byteOffset":12585092,
			"target":34962
		},
		{
			"buffer":0,
			"byteLength":576,
			"byteOffset":12585956,
			"target":34962
		},
		{
			"buffer":0,
			"byteLength":216,
			"byteOffset":12586532,
			"target":34963
		},
		{
			"buffer":0,
			"byteLength":288,
			"byteOffset":12586748,
			"target":34962
		},
		{
			"buffer":0,
			"byteLength":288,
			"byteOffset":12587036,
			"target":34962
		},
		{
			"buffer":0,
			"byteLength":192,
			"byteOffset":12587324,
			"target":34962
		},
		{
			"buffer":0,
			"byteLength":72,
			"byteOffset":12587516,
			"target":34963
		},
		{
			"buffer":0,
			"byteLength":384,
			"byteOffset":12587588,
			"target":34962
		},
		{
			"buffer":0,
			"byteLength":384,
			"byteOffset":12587972,
			"target":34962
		},
		{
			"buffer":0,
			"byteLength":256,
			"byteOffset":12588356,
			"target":34962
		},
		{
			"buffer":0,
			"byteLength":384,
			"byteOffset":12588612,
			"target":34962
		},
		{
			"buffer":0,
			"byteLength":384,
			"byteOffset":12588996,
			"target":34962
		},
		{
			"buffer":0,
			"byteLength":256,
			"byteOffset":12589380,
			"target":34962
		},
		{
			"buffer":0,
			"byteLength":288,
			"byteOffset":12589636,
			"target":34962
		},
		{
			"buffer":0,
			"byteLength":288,
			"byteOffset":12589924,
			"target":34962
		},
		{
			"buffer":0,
			"byteLength":192,
			"byteOffset":12590212,
			"target":34962
		},
		{
			"buffer":0,
			"byteLength":384,
			"byteOffset":12590404,
			"target":34962
		},
		{
			"buffer":0,
			"byteLength":384,
			"byteOffset":12590788,
			"target":34962
		},
		{
			"buffer":0,
			"byteLength":256,
			"byteOffset":12591172,
			"target":34962
		},
		{
			"buffer":0,
			"byteLength":192,
			"byteOffset":12591428,
			"target":34962
		},
		{
			"buffer":0,
			"byteLength":192,
			"byteOffset":12591620,
			"target":34962
		},
		{
			"buffer":0,
			"byteLength":128,
			"byteOffset":12591812,
			"target":34962
		},
		{
			"buffer":0,
			"byteLength":776784,
			"byteOffset":12591940,
			"target":34962
		},
		{
			"buffer":0,
			"byteLength":776784,
			"byteOffset":13368724,
			"target":34962
		},
		{
			"buffer":0,
			"byteLength":517856,
			"byteOffset":14145508,
			"target":34962
		},
		{
			"buffer":0,
			"byteLength":194196,
			"byteOffset":14663364,
			"target":34963
		},
		{
			"buffer":0,
			"byteLength":606672,
			"byteOffset":14857560,
			"target":34962
		},
		{
			"buffer":0,
			"byteLength":606672,
			"byteOffset":15464232,
			"target":34962
		},
		{
			"buffer":0,
			"byteLength":404448,
			"byteOffset":16070904,
			"target":34962
		},
		{
			"buffer":0,
			"byteLength":149184,
			"byteOffset":16475352,
			"target":34963
		},
		{
			"buffer":0,
			"byteLength":174216,
			"byteOffset":16624536,
			"target":34962
		},
		{
			"buffer":0,
			"byteLength":174216,
			"byteOffset":16798752,
			"target":34962
		},
		{
			"buffer":0,
			"byteLength":116144,
			"byteOffset":16972968,
			"target":34962
		},
		{
			"buffer":0,
			"byteLength":42816,
			"byteOffset":17089112,
			"target":34963
		},
		{
			"buffer":0,
			"byteLength":498192,
			"byteOffset":17131928,
			"target":34962
		},
		{
			"buffer":0,
			"byteLength":498192,
			"byteOffset":17630120,
			"target":34962
		},
		{
			"buffer":0,
			"byteLength":332128,
			"byteOffset":18128312,
			"target":34962
		},
		{
			"buffer":0,
			"byteLength":124548,
			"byteOffset":18460440,
			"target":34963
		},
		{
			"buffer":0,
			"byteLength":37248,
			"byteOffset":18584988,
			"target":34962
		},
		{
			"buffer":0,
			"byteLength":37248,
			"byteOffset":18622236,
			"target":34962
		},
		{
			"buffer":0,
			"byteLength":24832,
			"byteOffset":18659484,
			"target":34962
		},
		{
			"buffer":0,
			"byteLength":9312,
			"byteOffset":18684316,
			"target":34963
		},
		{
			"buffer":0,
			"byteLength":42144,
			"byteOffset":18693628,
			"target":34962
		},
		{
			"buffer":0,
			"byteLength":42144,
			"byteOffset":18735772,
			"target":34962
		},
		{
			"buffer":0,
			"byteLength":28096,
			"byteOffset":18777916,
			"target":34962
		},
		{
			"buffer":0,
			"byteLength":10536,
			"byteOffset":18806012,
			"target":34963
		},
		{
			"buffer":0,
			"byteLength":37248,
			"byteOffset":18816548,
			"target":34962
		},
		{
			"buffer":0,
			"byteLength":37248,
			"byteOffset":18853796,
			"target":34962
		},
		{
			"buffer":0,
			"byteLength":24832,
			"byteOffset":18891044,
			"target":34962
		},
		{
			"buffer":0,
			"byteLength":9312,
			"byteOffset":18915876,
			"target":34963
		},
		{
			"buffer":0,
			"byteLength":176784,
			"byteOffset":18925188,
			"target":34962
		},
		{
			"buffer":0,
			"byteLength":176784,
			"byteOffset":19101972,
			"target":34962
		},
		{
			"buffer":0,
			"byteLength":117856,
			"byteOffset":19278756,
			"target":34962
		},
		{
			"buffer":0,
			"byteLength":44196,
			"byteOffset":19396612,
			"target":34963
		},
		{
			"buffer":0,
			"byteLength":307776,
			"byteOffset":19440808,
			"target":34962
		},
		{
			"buffer":0,
			"byteLength":307776,
			"byteOffset":19748584,
			"target":34962
		},
		{
			"buffer":0,
			"byteLength":205184,
			"byteOffset":20056360,
			"target":34962
		},
		{
			"buffer":0,
			"byteLength":76944,
			"byteOffset":20261544,
			"target":34963
		},
		{
			"buffer":0,
			"byteLength":96,
			"byteOffset":20338488,
			"target":34962
		},
		{
			"buffer":0,
			"byteLength":96,
			"byteOffset":20338584,
			"target":34962
		},
		{
			"buffer":0,
			"byteLength":64,
			"byteOffset":20338680,
			"target":34962
		},
		{
			"buffer":0,
			"byteLength":24,
			"byteOffset":20338744,
			"target":34963
		},
		{
			"buffer":0,
			"byteLength":96,
			"byteOffset":20338768,
			"target":34962
		},
		{
			"buffer":0,
			"byteLength":96,
			"byteOffset":20338864,
			"target":34962
		},
		{
			"buffer":0,
			"byteLength":64,
			"byteOffset":20338960,
			"target":34962
		},
		{
			"buffer":0,
			"byteLength":24,
			"byteOffset":20339024,
			"target":34963
		},
		{
			"buffer":0,
			"byteLength":192,
			"byteOffset":20339048,
			"target":34962
		},
		{
			"buffer":0,
			"byteLength":192,
			"byteOffset":20339240,
			"target":34962
		},
		{
			"buffer":0,
			"byteLength":128,
			"byteOffset":20339432,
			"target":34962
		},
		{
			"buffer":0,
			"byteLength":192,
			"byteOffset":20339560,
			"target":34962
		},
		{
			"buffer":0,
			"byteLength":192,
			"byteOffset":20339752,
			"target":34962
		},
		{
			"buffer":0,
			"byteLength":128,
			"byteOffset":20339944,
			"target":34962
		},
		{
			"buffer":0,
			"byteLength":1152,
			"byteOffset":20340072,
			"target":34962
		},
		{
			"buffer":0,
			"byteLength":1152,
			"byteOffset":20341224,
			"target":34962
		},
		{
			"buffer":0,
			"byteLength":768,
			"byteOffset":20342376,
			"target":34962
		},
		{
			"buffer":0,
			"byteLength":288,
			"byteOffset":20343144,
			"target":34963
		},
		{
			"buffer":0,
			"byteLength":1152,
			"byteOffset":20343432,
			"target":34962
		},
		{
			"buffer":0,
			"byteLength":1152,
			"byteOffset":20344584,
			"target":34962
		},
		{
			"buffer":0,
			"byteLength":768,
			"byteOffset":20345736,
			"target":34962
		},
		{
			"buffer":0,
			"byteLength":230280,
			"byteOffset":20346504,
			"target":34962
		},
		{
			"buffer":0,
			"byteLength":230280,
			"byteOffset":20576784,
			"target":34962
		},
		{
			"buffer":0,
			"byteLength":153520,
			"byteOffset":20807064,
			"target":34962
		},
		{
			"buffer":0,
			"byteLength":56736,
			"byteOffset":20960584,
			"target":34963
		},
		{
			"buffer":0,
			"byteLength":230232,
			"byteOffset":21017320,
			"target":34962
		},
		{
			"buffer":0,
			"byteLength":230232,
			"byteOffset":21247552,
			"target":34962
		},
		{
			"buffer":0,
			"byteLength":153488,
			"byteOffset":21477784,
			"target":34962
		},
		{
			"buffer":0,
			"byteLength":56736,
			"byteOffset":21631272,
			"target":34963
		},
		{
			"buffer":0,
			"byteLength":82368,
			"byteOffset":21688008,
			"target":34962
		},
		{
			"buffer":0,
			"byteLength":82368,
			"byteOffset":21770376,
			"target":34962
		},
		{
			"buffer":0,
			"byteLength":54912,
			"byteOffset":21852744,
			"target":34962
		},
		{
			"buffer":0,
			"byteLength":20184,
			"byteOffset":21907656,
			"target":34963
		},
		{
			"buffer":0,
			"byteLength":82368,
			"byteOffset":21927840,
			"target":34962
		},
		{
			"buffer":0,
			"byteLength":82368,
			"byteOffset":22010208,
			"target":34962
		},
		{
			"buffer":0,
			"byteLength":54912,
			"byteOffset":22092576,
			"target":34962
		},
		{
			"buffer":0,
			"byteLength":384,
			"byteOffset":22147488,
			"target":34962
		},
		{
			"buffer":0,
			"byteLength":384,
			"byteOffset":22147872,
			"target":34962
		},
		{
			"buffer":0,
			"byteLength":256,
			"byteOffset":22148256,
			"target":34962
		},
		{
			"buffer":0,
			"byteLength":384,
			"byteOffset":22148512,
			"target":34962
		},
		{
			"buffer":0,
			"byteLength":384,
			"byteOffset":22148896,
			"target":34962
		},
		{
			"buffer":0,
			"byteLength":256,
			"byteOffset":22149280,
			"target":34962
		},
		{
			"buffer":0,
			"byteLength":672,
			"byteOffset":22149536,
			"target":34962
		},
		{
			"buffer":0,
			"byteLength":672,
			"byteOffset":22150208,
			"target":34962
		},
		{
			"buffer":0,
			"byteLength":448,
			"byteOffset":22150880,
			"target":34962
		},
		{
			"buffer":0,
			"byteLength":672,
			"byteOffset":22151328,
			"target":34962
		},
		{
			"buffer":0,
			"byteLength":672,
			"byteOffset":22152000,
			"target":34962
		},
		{
			"buffer":0,
			"byteLength":448,
			"byteOffset":22152672,
			"target":34962
		}
	],
	"samplers":[
		{
			"magFilter":9729,
			"minFilter":9987
		}
	],
	"buffers":[
		{
			"byteLength":22153120,
			"uri":"isle.bin"
		}
	]
}
